<?xml version="1.0" encoding="UTF-8" standalone="no"?>
<!-- Created with Inkscape (http://www.inkscape.org/) -->

<svg
   xmlns:dc="http://purl.org/dc/elements/1.1/"
   xmlns:cc="http://creativecommons.org/ns#"
   xmlns:rdf="http://www.w3.org/1999/02/22-rdf-syntax-ns#"
   xmlns:svg="http://www.w3.org/2000/svg"
   xmlns="http://www.w3.org/2000/svg"
   xmlns:sodipodi="http://sodipodi.sourceforge.net/DTD/sodipodi-0.dtd"
   xmlns:inkscape="http://www.inkscape.org/namespaces/inkscape"
   width="1000"
   height="1004.8334"
   viewBox="0 0 264.58332 265.86219"
   version="1.1"
   id="svg8"
   inkscape:version="0.92.4 (5da689c313, 2019-01-14)"
   sodipodi:docname="A.svg">
  <defs
     id="defs2">
    <clipPath
       clipPathUnits="userSpaceOnUse"
       id="clipPath3216">
      <path
         d="M 0,1648.628 H 918 V 0 H 0 Z"
         id="path3214"
         inkscape:connector-curvature="0" />
    </clipPath>
  </defs>
  <sodipodi:namedview
     id="base"
     pagecolor="#ffffff"
     bordercolor="#666666"
     borderopacity="1.0"
     inkscape:pageopacity="0.82352941"
     inkscape:pageshadow="2"
     inkscape:zoom="0.49497475"
     inkscape:cx="714.82787"
     inkscape:cy="351.47194"
     inkscape:document-units="px"
     inkscape:current-layer="layer1"
     showgrid="false"
     units="px"
     inkscape:window-width="1920"
     inkscape:window-height="1017"
     inkscape:window-x="1912"
     inkscape:window-y="-8"
     inkscape:window-maximized="1"
     inkscape:pagecheckerboard="true"
     fit-margin-top="0"
     fit-margin-left="0"
     fit-margin-right="0"
     fit-margin-bottom="0" />
  <metadata
     id="metadata5">
    <rdf:RDF>
      <cc:Work
         rdf:about="">
        <dc:format>image/svg+xml</dc:format>
        <dc:type
           rdf:resource="http://purl.org/dc/dcmitype/StillImage" />
        <dc:title></dc:title>
      </cc:Work>
    </rdf:RDF>
  </metadata>
  <g
     inkscape:label="Layer 1"
     inkscape:groupmode="layer"
     id="layer1"
     transform="translate(-292.92526,2208.035)">
    <path
       inkscape:connector-curvature="0"
       id="path3573"
       style="fill:#0e0a06;fill-opacity:1;fill-rule:nonzero;stroke:none;stroke-width:3.33883882"
       d="m 317.07374,-1977.3208 h 5.97319 v 34.5565 h -5.08505 l -19.0481,-24.5867 v 24.5867 h -5.9765 v -34.5565 h 5.62925 l 18.50721,23.8863 z" />
    <path
       inkscape:connector-curvature="0"
       id="path3577"
       style="fill:#0e0a06;fill-opacity:1;fill-rule:nonzero;stroke:none;stroke-width:3.33883882"
       d="m 346.22351,-1972.3388 c -6.86133,0 -11.6526,5.4856 -11.6526,12.247 0,6.7614 4.89141,12.3369 11.74942,12.3369 6.86133,0 11.65582,-5.4761 11.65582,-12.247 0,-6.7547 -4.89131,-12.3369 -11.75264,-12.3369 m 0,30.166 c -10.61085,0 -18.01638,-8.0533 -18.01638,-17.8291 0,-9.7663 7.50566,-17.9124 18.1132,-17.9124 10.61748,0 18.0197,8.0391 18.0197,17.8225 0,9.7692 -7.50576,17.919 -18.11652,17.919" />
    <path
       inkscape:connector-curvature="0"
       id="path3581"
       style="fill:#0e0a06;fill-opacity:1;fill-rule:nonzero;stroke:none;stroke-width:3.33883882"
       d="m 391.64339,-1977.3208 h 6.56746 l -14.367,34.7969 h -5.33548 l -14.36368,-34.7969 h 6.71444 l 10.41711,26.5534 z" />
    <path
       inkscape:connector-curvature="0"
       id="path3585"
       style="fill:#0e0a06;fill-opacity:1;fill-rule:nonzero;stroke:none;stroke-width:3.33883882"
       d="m 411.53288,-1970.3105 -5.91981,13.819 h 11.893 z m 18.11652,27.5452 h -6.41064 l -3.50903,-8.3476 H 403.3894 l -3.55588,8.3476 h -6.21358 l 15.20176,-34.8045 h 5.63266 z" />
    <path
       inkscape:connector-curvature="0"
       id="path3589"
       style="fill:#0e0a06;fill-opacity:1;fill-rule:nonzero;stroke:none;stroke-width:3.33883882"
       d="m 455.69436,-1952.9386 c 0,-2.9614 -2.31386,-4.6877 -7.10844,-4.6877 h -9.62589 v 9.4758 h 10.06996 c 4.14684,0 6.66437,-1.626 6.66437,-4.7881 m -1.92317,-14.5534 c 0,-2.8185 -2.1736,-4.4474 -6.07341,-4.4474 h -8.73775 v 9.1815 h 8.29708 c 3.89972,0 6.51408,-1.5323 6.51408,-4.7341 m 6.07001,-0.9919 c 0,4.2438 -2.37396,6.4169 -4.93484,7.7457 4.04329,1.3827 6.86464,3.7034 6.86464,8.4375 0,6.2238 -5.08505,9.5354 -12.79439,9.5354 h -15.98977 v -34.5565 h 15.50226 c 6.95815,0 11.3521,3.4053 11.3521,8.8379" />
    <path
       inkscape:connector-curvature="0"
       id="path3593"
       style="fill:#0e0a06;fill-opacity:1;fill-rule:nonzero;stroke:none;stroke-width:3.33883882"
       d="m 480.54634,-1970.3105 -5.92644,13.819 h 11.89963 z m 18.11652,27.5452 h -6.41726 l -3.50913,-8.3476 h -16.34023 l -3.54926,8.3476 h -6.22021 l 15.20176,-34.8045 h 5.63257 z" />
    <path
       inkscape:connector-curvature="0"
       id="path3597"
       style="fill:#0e0a06;fill-opacity:1;fill-rule:nonzero;stroke:none;stroke-width:3.33883882"
       d="m 515.57806,-1962.8109 c 7.3054,1.7793 11.10499,4.3934 11.10499,10.1733 0,6.5134 -5.08505,10.3597 -12.33698,10.3597 -5.28872,0 -10.27032,-1.8228 -14.41375,-5.5224 l 3.64598,-4.3499 c 3.30545,2.8649 6.61422,4.4937 10.91135,4.4937 3.74952,0 6.12339,-1.7291 6.12339,-4.3934 0,-2.5175 -1.38228,-3.8501 -7.80617,-5.3294 -7.34884,-1.7793 -11.49568,-3.9533 -11.49568,-10.3702 0,-6.0165 4.93485,-10.0663 11.80281,-10.0663 5.02835,0 9.03161,1.5256 12.53402,4.3432 l -3.26201,4.5978 c -3.11181,-2.3301 -6.21359,-3.5624 -9.37887,-3.5624 -3.55247,0 -5.61922,1.8333 -5.61922,4.1464 0,2.7153 1.57924,3.9003 8.19014,5.4799" />
    <path
       inkscape:connector-curvature="0"
       id="path3601"
       style="fill:#0e0a06;fill-opacity:1;fill-rule:nonzero;stroke:none;stroke-width:3.33883882"
       d="m 557.26147,-1971.8958 h -19.54886 v 8.9855 h 17.3252 v 5.425 h -17.3252 v 9.2893 h 19.79598 v 5.4317 h -25.8694 v -34.5565 h 25.62228 z" />
    <path
       inkscape:connector-curvature="0"
       id="path3605"
       style="fill:#0e0a06;fill-opacity:1;fill-rule:nonzero;stroke:none;stroke-width:3.33883882"
       d="m 353.60529,-2004.9835 -41.9558,-61.7553 v 54.817 h -18.72423 v -86.2361 h 17.48884 l 40.41329,53.0945 8.69099,-58.5801 19.14161,2.0036 -2.55085,89.614 z" />
    <path
       inkscape:connector-curvature="0"
       id="path3609"
       style="fill:#0e0a06;fill-opacity:1;fill-rule:nonzero;stroke:none;stroke-width:3.33883882"
       d="m 374.14688,-2109.8834 c -23.47537,0 -47.38147,-18.6307 -47.38147,-40.7642 0,-22.1326 14.84779,-42.8568 38.32316,-42.8568 23.47538,0 41.80892,17.4249 46.69701,42.8568 4.16359,21.7294 -14.1567,40.7642 -37.6387,40.7642 m 51.06086,-63.9719 c -9.18853,-30.2531 -44.90406,-40.3128 -76.84006,-30.6174 -31.92597,9.6896 -48.02581,40.5938 -38.82734,70.8469 9.1751,30.2502 54.73354,51.5016 84.46262,36.6036 34.77732,-17.4315 40.3866,-46.5829 31.20478,-76.8331" />
    <path
       inkscape:connector-curvature="0"
       id="path3613"
       style="fill:#ed1c24;fill-opacity:1;fill-rule:nonzero;stroke:none;stroke-width:3.33883882"
       d="m 395.37351,-2151.3707 c -5.57587,15.3248 -19.21165,26.4834 -33.44851,26.4834 -14.24009,0 -22.30009,-11.8429 -18.11312,-26.4834 4.01661,-14.067 11.93294,-23.1585 25.7758,-26.4843 17.41871,-4.1729 30.7874,12.7448 25.78583,26.4843" />
  </g>
</svg>
