<?xml version="1.0" encoding="utf-8"?>
<!-- Generator: Adobe Illustrator 24.2.3, SVG Export Plug-In . SVG Version: 6.00 Build 0)  -->
<svg version="1.1" id="Layer_1" xmlns="http://www.w3.org/2000/svg" xmlns:xlink="http://www.w3.org/1999/xlink" x="0px" y="0px"
	 viewBox="0 0 689.9 93.1" style="enable-background:new 0 0 689.9 93.1;" xml:space="preserve">
<g>
	<polygon points="62.9,1.5 78.5,1.5 78.5,91.5 65.3,91.5 15.6,27.5 15.6,91.5 0,91.5 0,1.5 14.7,1.5 62.9,63.8 	"/>
	<g>
		<path d="M138.9,14.5c-17.9,0-30.4,14.3-30.4,31.9c0,17.6,12.7,32.1,30.6,32.1c17.9,0,30.4-14.3,30.4-31.9
			C169.6,29.1,156.8,14.5,138.9,14.5 M138.9,93.1c-27.7,0-47-20.9-47-46.4C92,21.2,111.5,0,139.2,0c27.7,0,47,21,47,46.4
			C186.2,71.9,166.6,93.1,138.9,93.1"/>
	</g>
	<polygon points="257.4,1.5 274.5,1.5 237,92.2 223.1,92.2 185.7,1.5 203.2,1.5 230.3,70.7 	"/>
	<path d="M309.2,19.8l-15.4,36l31,0L309.2,19.8z M356.5,91.5l-16.7,0l-9.1-21.7l-42.6,0l-9.3,21.7l-16.2,0l39.7-90.6l14.7,0
		L356.5,91.5z"/>
	<g>
		<path d="M424.4,65c0-7.7-6-12.2-18.5-12.2l-25.1,0l0,24.7l26.3,0C417.8,77.5,424.4,73.3,424.4,65 M419.4,27.1
			c0-7.3-5.7-11.6-15.8-11.6l-22.8,0v23.9l21.6,0C412.5,39.5,419.4,35.5,419.4,27.1 M435.2,24.6c0,11.1-6.2,16.7-12.9,20.2
			c10.6,3.6,17.9,9.6,17.9,22c0,16.2-13.3,24.8-33.3,24.8l-41.7,0v-90l40.4,0C423.7,1.5,435.2,10.4,435.2,24.6"/>
	</g>
	<path d="M489.2,19.8l-15.5,36l31,0L489.2,19.8z M536.4,91.5l-16.7,0l-9.1-21.7l-42.6,0l-9.3,21.7l-16.2,0l39.6-90.6l14.7,0
		L536.4,91.5z"/>
	<g>
		<path d="M580.5,39.3c19.1,4.6,29,11.4,29,26.5c0,17-13.3,27-32.2,27c-13.8,0-26.8-4.8-37.6-14.4l9.5-11.3
			c8.6,7.5,17.3,11.7,28.4,11.7c9.8,0,16-4.5,16-11.4c0-6.5-3.6-10-20.3-13.9c-19.2-4.6-30-10.3-30-27c0-15.7,12.9-26.2,30.8-26.2
			c13.1,0,23.6,4,32.7,11.3l-8.5,11.9c-8.1-6-16.2-9.3-24.5-9.3c-9.3,0-14.7,4.8-14.7,10.8C559.2,32.1,563.3,35.2,580.5,39.3"/>
	</g>
	<polygon points="689.2,15.7 638.2,15.7 638.2,39.1 683.4,39.1 683.4,53.2 638.2,53.2 638.2,77.4 689.9,77.4 689.9,91.5 622.4,91.5 
		622.4,1.5 689.2,1.5 	"/>
</g>
</svg>
