<svg xmlns="http://www.w3.org/2000/svg" viewBox="0 0 936.6 239.68"><defs><style>.cls-1{fill:#009ee3;}</style></defs><g id="Layer_2" data-name="Layer 2"><g id="opmaak_logo" data-name="opmaak logo"><path class="cls-1" d="M120.48,61.33A36.12,36.12,0,0,0,108.1,54.8a43.58,43.58,0,0,0-12.32-2H38.13q-10.55,0-17.81,3.81A36.57,36.57,0,0,0,8.51,66.14,36.09,36.09,0,0,0,2,78.52,43.27,43.27,0,0,0,0,90.85v57.28q0,10.56,3.81,17.81A36,36,0,0,0,25.7,184.28a43.7,43.7,0,0,0,12.33,2H95.67q10.56,0,17.81-3.81a36,36,0,0,0,18.34-21.89,43.58,43.58,0,0,0,2-12.32V91q0-10.56-3.81-17.81A36.57,36.57,0,0,0,120.48,61.33ZM106.64,148q0,5.43-2.82,8.25t-8.15,2.82H38.24q-5.44,0-8.26-2.82t-2.82-8.15V91.05q0-5.43,2.82-8.25T38.13,80H95.57q5.43,0,8.25,2.82T106.64,91Z"/><path class="cls-1" d="M281,61.33a36.21,36.21,0,0,0-12.38-6.53,43.7,43.7,0,0,0-12.33-2H198.65q-10.56,0-17.82,3.81A36.53,36.53,0,0,0,169,66.14a36.12,36.12,0,0,0-6.53,12.38,43.27,43.27,0,0,0-2,12.33V239.68h27.17V91.05q0-5.43,2.82-8.25c1.88-1.88,4.59-2.82,8.15-2.82h57.43q5.43,0,8.25,2.82T267.15,91V148q0,5.43-2.82,8.25c-1.88,1.88-4.59,2.82-8.15,2.82H199.61v27.16h56.57q10.56,0,17.82-3.81a36.53,36.53,0,0,0,11.8-9.51,36.12,36.12,0,0,0,6.53-12.38,43.26,43.26,0,0,0,2-12.32V91q0-10.56-3.82-17.81A36.68,36.68,0,0,0,281,61.33Z"/><path class="cls-1" d="M602.06,61.33a36.12,36.12,0,0,0-12.38-6.53,43.59,43.59,0,0,0-12.33-2H519.71q-10.55,0-17.81,3.81a36,36,0,0,0-18.34,21.89,43.59,43.59,0,0,0-2,12.33V239.68h27.16V91.05q0-5.43,2.82-8.25T519.71,80h57.44q5.43,0,8.25,2.82T588.22,91V148q0,5.43-2.82,8.25t-8.15,2.82H520.67v27.16h56.58q10.56,0,17.81-3.81a36.57,36.57,0,0,0,11.81-9.51,36.12,36.12,0,0,0,6.53-12.38,43.58,43.58,0,0,0,2-12.32V91q0-10.56-3.81-17.81A36.57,36.57,0,0,0,602.06,61.33Z"/><path class="cls-1" d="M348.44,0H321.28V148.13q0,10.56,3.81,17.81A36,36,0,0,0,347,184.28a43.7,43.7,0,0,0,12.33,2h42.22V159.1h-42q-5.44,0-8.26-2.82t-2.82-8.15V80h53.09V52.82H348.44Z"/><path class="cls-1" d="M680.7,159.1q-5.43,0-8.25-2.82t-2.82-8.15V0H642.47V148.13q0,10.56,3.81,17.81a36,36,0,0,0,21.89,18.34,43.59,43.59,0,0,0,12.33,2h43.22V159.1Z"/><rect class="cls-1" x="428.27" y="52.82" width="27.16" height="133.45"/><rect class="cls-1" x="428.27" width="27.16" height="26.11"/><path class="cls-1" d="M758.74,172.94a36.53,36.53,0,0,0,11.8,9.51q7.26,3.81,17.82,3.81h56.58V159.1H788.36q-5.33,0-8.15-2.82T777.39,148V52.82H750.22v95.42a43.61,43.61,0,0,0,2,12.32A36.12,36.12,0,0,0,758.74,172.94Z"/><path class="cls-1" d="M856.86,52.82V201.45q0,5.43-2.82,8.25c-1.88,1.88-4.59,2.82-8.15,2.82H750.22v27.16h95.67q10.56,0,17.82-3.81a36.53,36.53,0,0,0,11.8-9.51A36.12,36.12,0,0,0,882,214a43.26,43.26,0,0,0,2-12.32V52.82Z"/><path class="cls-1" d="M936.6,182.4a3.32,3.32,0,0,1-3.67,3.71h-19.2a3.74,3.74,0,0,1-2.76-1,3.65,3.65,0,0,1-.94-2.72V163.36a3.74,3.74,0,0,1,.94-2.76,3.69,3.69,0,0,1,2.73-.94h19.19a3.31,3.31,0,0,1,3.71,3.66Z"/></g></g></svg>